<svg width="541" height="295" viewBox="0 0 541 295" fill="none" xmlns="http://www.w3.org/2000/svg">
<path d="M502.189 12.2518L502.18 12.2601L502.172 12.2685L269.992 244.4L37.8307 12.2687L37.8222 12.2602L37.8137 12.2518C30.8065 5.29347 19.4214 5.22783 12.3558 12.1852C10.6687 13.8387 9.32649 15.8107 8.40714 17.9869C7.48604 20.1671 7.00775 22.5088 7.00009 24.8757C6.99244 27.2426 7.45557 29.5873 8.36255 31.7735C9.26737 33.9545 10.5959 35.9342 12.2711 37.5981C12.2751 37.6021 12.2791 37.6061 12.2831 37.61L257.252 282.549L257.275 282.572L257.298 282.595C264.36 289.527 275.748 289.499 282.77 282.51L282.775 282.505L282.781 282.499L527.719 37.61C527.724 37.6058 527.728 37.6016 527.732 37.5974C529.407 35.9337 530.735 33.9542 531.64 31.7735C532.547 29.5871 533.01 27.2423 533.002 24.8757C532.995 22.5091 532.517 20.1673 531.596 17.9869C530.677 15.8128 529.337 13.8426 527.652 12.1901C520.587 5.2278 509.198 5.29184 502.189 12.2518Z" fill="white" stroke="white" stroke-width="14"/>
</svg>
